{
    "asset" : {
        "generator" : "Khronos glTF Blender I/O v0.9.36",
        "version" : "2.0"
    },
    "scene" : 0,
    "scenes" : [
        {
            "name" : "Scene",
            "nodes" : [
                0,
                1
            ]
        }
    ],
    "nodes" : [
        {
            "mesh" : 0,
            "name" : "Cube.199",
            "rotation" : [
                0,
                0.7071067690849304,
                0,
                0.7071067690849304
            ],
            "scale" : [
                3.664370536804199,
                0.07863206416368484,
                16.404342651367188
            ],
            "translation" : [
                61.52168273925781,
                8.470491409301758,
                75.42874145507812
            ]
        },
        {
            "mesh" : 1,
            "name" : "Cube.210",
            "rotation" : [
                0,
                0.7071067690849304,
                0,
                0.7071067690849304
            ],
            "scale" : [
                3.664370536804199,
                0.07863206416368484,
                16.404342651367188
            ],
            "translation" : [
                61.55668640136719,
                2.7288424968719482,
                75.53199005126953
            ]
        }
    ],
    "materials" : [
        {
            "doubleSided" : true,
            "name" : "glass_clear",
            "pbrMetallicRoughness" : {
                "baseColorTexture" : {
                    "index" : 0,
                    "texCoord" : 0
                },
                "metallicFactor" : 0,
                "roughnessFactor" : 0.11274510622024536
            }
        },
        {
            "doubleSided" : true,
            "name" : "blazeStand",
            "pbrMetallicRoughness" : {
                "baseColorFactor" : [
                    0.8878065943717957,
                    0.8878065943717957,
                    0.8878065943717957,
                    1
                ],
                "metallicFactor" : 0.6509090662002563,
                "roughnessFactor" : 0.14363637566566467
            }
        }
    ],
    "meshes" : [
        {
            "name" : "Cube.214",
            "primitives" : [
                {
                    "attributes" : {
                        "POSITION" : 0,
                        "NORMAL" : 1,
                        "TEXCOORD_0" : 2
                    },
                    "indices" : 3,
                    "material" : 0
                }
            ]
        },
        {
            "name" : "Cube.226",
            "primitives" : [
                {
                    "attributes" : {
                        "POSITION" : 4,
                        "NORMAL" : 5,
                        "TEXCOORD_0" : 6
                    },
                    "indices" : 7,
                    "material" : 1
                }
            ]
        }
    ],
    "textures" : [
        {
            "source" : 0
        }
    ],
    "images" : [
        {
            "bufferView" : 4,
            "mimeType" : "image/png",
            "name" : "translucenttenth"
        }
    ],
    "accessors" : [
        {
            "bufferView" : 0,
            "componentType" : 5126,
            "count" : 654,
            "max" : [
                3.1526236534118652,
                152.54991149902344,
                1.0000001192092896
            ],
            "min" : [
                1.804481863975525,
                49.96536636352539,
                -1.0000001192092896
            ],
            "type" : "VEC3"
        },
        {
            "bufferView" : 1,
            "componentType" : 5126,
            "count" : 654,
            "type" : "VEC3"
        },
        {
            "bufferView" : 2,
            "componentType" : 5126,
            "count" : 654,
            "type" : "VEC2"
        },
        {
            "bufferView" : 3,
            "componentType" : 5123,
            "count" : 1020,
            "type" : "SCALAR"
        },
        {
            "bufferView" : 5,
            "componentType" : 5126,
            "count" : 739,
            "max" : [
                3.542527437210083,
                157.18296813964844,
                1.4010785818099976
            ],
            "min" : [
                0.2656310200691223,
                -7.292912006378174,
                -1.4013301134109497
            ],
            "type" : "VEC3"
        },
        {
            "bufferView" : 6,
            "componentType" : 5126,
            "count" : 739,
            "type" : "VEC3"
        },
        {
            "bufferView" : 7,
            "componentType" : 5126,
            "count" : 739,
            "type" : "VEC2"
        },
        {
            "bufferView" : 8,
            "componentType" : 5123,
            "count" : 3633,
            "type" : "SCALAR"
        }
    ],
    "bufferViews" : [
        {
            "buffer" : 0,
            "byteLength" : 7848,
            "byteOffset" : 0
        },
        {
            "buffer" : 0,
            "byteLength" : 7848,
            "byteOffset" : 7848
        },
        {
            "buffer" : 0,
            "byteLength" : 5232,
            "byteOffset" : 15696
        },
        {
            "buffer" : 0,
            "byteLength" : 2040,
            "byteOffset" : 20928
        },
        {
            "buffer" : 0,
            "byteLength" : 336,
            "byteOffset" : 22968
        },
        {
            "buffer" : 0,
            "byteLength" : 8868,
            "byteOffset" : 23304
        },
        {
            "buffer" : 0,
            "byteLength" : 8868,
            "byteOffset" : 32172
        },
        {
            "buffer" : 0,
            "byteLength" : 5912,
            "byteOffset" : 41040
        },
        {
            "buffer" : 0,
            "byteLength" : 7266,
            "byteOffset" : 46952
        }
    ],
    "buffers" : [
        {
            "byteLength" : 54220,
            "uri" : "data:application/octet-stream;base64,"
        }
    ]
}
