{
    "asset" : {
        "generator" : "Khronos glTF Blender I/O v0.9.36",
        "version" : "2.0"
    },
    "scene" : 0,
    "scenes" : [
        {
            "name" : "Scene",
            "nodes" : [
                0,
                1,
                2,
                3,
                4,
                5,
                6,
                7
            ]
        }
    ],
    "nodes" : [
        {
            "mesh" : 0,
            "name" : "Cube.021",
            "rotation" : [
                0,
                0.7071067690849304,
                0,
                -0.7071067690849304
            ],
            "scale" : [
                0.6059801578521729,
                7.487427711486816,
                -25.8006591796875
            ],
            "translation" : [
                41.347259521484375,
                9.150443077087402,
                62.1519889831543
            ]
        },
        {
            "mesh" : 1,
            "name" : "Torus.001",
            "rotation" : [
                0.7071067690849304,
                0,
                0,
                0.7071067690849304
            ],
            "scale" : [
                2.075242519378662,
                2.075242519378662,
                2.3783321380615234
            ],
            "translation" : [
                46.22252655029297,
                15.329120635986328,
                61.365352630615234
            ]
        },
        {
            "mesh" : 2,
            "name" : "Cylinder.025",
            "rotation" : [
                0,
                0.9628496170043945,
                0,
                -0.27003827691078186
            ],
            "scale" : [
                1.9595404863357544,
                0.15979993343353271,
                1.9595404863357544
            ],
            "translation" : [
                131.9356689453125,
                2.5243349075317383,
                -21.22161293029785
            ]
        },
        {
            "mesh" : 3,
            "name" : "Cylinder.033",
            "rotation" : [
                0,
                0.9407167434692383,
                0,
                0.3391931354999542
            ],
            "scale" : [
                7.266648292541504,
                0.2939252555370331,
                7.266648292541504
            ],
            "translation" : [
                100.59185791015625,
                2.7872519493103027,
                -2.33817458152771
            ]
        },
        {
            "mesh" : 4,
            "name" : "Plane.004",
            "rotation" : [
                0.11615239828824997,
                0.6970675587654114,
                -0.5616925954818726,
                0.43024054169654846
            ],
            "scale" : [
                2.756047487258911,
                2.7560479640960693,
                2.7560484409332275
            ],
            "translation" : [
                99.24748992919922,
                7.460798263549805,
                -0.6390845775604248
            ]
        },
        {
            "mesh" : 5,
            "name" : "Plane.015",
            "rotation" : [
                0.565448522567749,
                -0.40532273054122925,
                0.09621792286634445,
                0.7118451595306396
            ],
            "scale" : [
                2.7560484409332275,
                2.756047010421753,
                2.756047010421753
            ],
            "translation" : [
                101.9302749633789,
                15.349194526672363,
                -3.585489511489868
            ]
        },
        {
            "mesh" : 6,
            "name" : "Cube.167",
            "scale" : [
                23.105838775634766,
                0.922242283821106,
                3.059995412826538
            ],
            "translation" : [
                55.31439208984375,
                5.3867645263671875,
                54.97314453125
            ]
        },
        {
            "mesh" : 7,
            "name" : "Cylinder.080",
            "rotation" : [
                0,
                0.9407167434692383,
                0,
                0.3391931354999542
            ],
            "scale" : [
                7.050149917602539,
                0.3070147633552551,
                7.050149917602539
            ],
            "translation" : [
                100.6723403930664,
                2.8115057945251465,
                -2.2724623680114746
            ]
        }
    ],
    "materials" : [
        {
            "doubleSided" : true,
            "name" : "bluewalls",
            "pbrMetallicRoughness" : {
                "baseColorFactor" : [
                    0.06611157953739166,
                    0.24472612142562866,
                    0.5070510506629944,
                    1
                ],
                "metallicFactor" : 0,
                "roughnessFactor" : 0.5728805065155029
            }
        },
        {
            "doubleSided" : true,
            "name" : "vrOculusRing",
            "pbrMetallicRoughness" : {
                "baseColorFactor" : [
                    0.800000011920929,
                    0.800000011920929,
                    0.800000011920929,
                    1
                ],
                "metallicFactor" : 0.9067357778549194,
                "roughnessFactor" : 0.5
            }
        },
        {
            "doubleSided" : true,
            "name" : "gallery_stand",
            "pbrMetallicRoughness" : {
                "baseColorFactor" : [
                    0.29567956924438477,
                    0.29567956924438477,
                    0.29567956924438477,
                    1
                ],
                "metallicFactor" : 0,
                "roughnessFactor" : 0.3074239492416382
            }
        },
        {
            "doubleSided" : true,
            "name" : "silver",
            "pbrMetallicRoughness" : {
                "baseColorFactor" : [
                    0.9113719463348389,
                    0.9113719463348389,
                    0.9113719463348389,
                    1
                ],
                "metallicFactor" : 0.3872060477733612,
                "roughnessFactor" : 0.11191139370203018
            }
        },
        {
            "doubleSided" : true,
            "name" : "vrTable",
            "pbrMetallicRoughness" : {
                "baseColorFactor" : [
                    0.20188994705677032,
                    0.20188994705677032,
                    0.20188994705677032,
                    1
                ],
                "metallicFactor" : 0,
                "roughnessFactor" : 0.7020725607872009
            }
        }
    ],
    "meshes" : [
        {
            "name" : "Cube.021",
            "primitives" : [
                {
                    "attributes" : {
                        "POSITION" : 0,
                        "NORMAL" : 1,
                        "TEXCOORD_0" : 2
                    },
                    "indices" : 3,
                    "material" : 0
                }
            ]
        },
        {
            "name" : "Torus.001",
            "primitives" : [
                {
                    "attributes" : {
                        "POSITION" : 4,
                        "NORMAL" : 5,
                        "TEXCOORD_0" : 6
                    },
                    "indices" : 7,
                    "material" : 1
                }
            ]
        },
        {
            "name" : "Cylinder.035",
            "primitives" : [
                {
                    "attributes" : {
                        "POSITION" : 8,
                        "NORMAL" : 9,
                        "TEXCOORD_0" : 10
                    },
                    "indices" : 11,
                    "material" : 2
                }
            ]
        },
        {
            "name" : "Cylinder.023",
            "primitives" : [
                {
                    "attributes" : {
                        "POSITION" : 12,
                        "NORMAL" : 13,
                        "TEXCOORD_0" : 14
                    },
                    "indices" : 15,
                    "material" : 3
                }
            ]
        },
        {
            "name" : "Plane.022",
            "primitives" : [
                {
                    "attributes" : {
                        "POSITION" : 16,
                        "NORMAL" : 17,
                        "TEXCOORD_0" : 18
                    },
                    "indices" : 19,
                    "material" : 3
                }
            ]
        },
        {
            "name" : "Plane.024",
            "primitives" : [
                {
                    "attributes" : {
                        "POSITION" : 20,
                        "NORMAL" : 21,
                        "TEXCOORD_0" : 22
                    },
                    "indices" : 19,
                    "material" : 3
                }
            ]
        },
        {
            "name" : "Cube.178",
            "primitives" : [
                {
                    "attributes" : {
                        "POSITION" : 23,
                        "NORMAL" : 24,
                        "TEXCOORD_0" : 25
                    },
                    "indices" : 26,
                    "material" : 4
                }
            ]
        },
        {
            "name" : "Cylinder.085",
            "primitives" : [
                {
                    "attributes" : {
                        "POSITION" : 27,
                        "NORMAL" : 28,
                        "TEXCOORD_0" : 29
                    },
                    "indices" : 30,
                    "material" : 3
                }
            ]
        }
    ],
    "accessors" : [
        {
            "bufferView" : 0,
            "componentType" : 5126,
            "count" : 24,
            "max" : [
                1.0000003576278687,
                1.5735678672790527,
                1.695183515548706
            ],
            "min" : [
                -1.000000238418579,
                -1,
                -0.41473764181137085
            ],
            "type" : "VEC3"
        },
        {
            "bufferView" : 1,
            "componentType" : 5126,
            "count" : 24,
            "type" : "VEC3"
        },
        {
            "bufferView" : 2,
            "componentType" : 5126,
            "count" : 24,
            "type" : "VEC2"
        },
        {
            "bufferView" : 3,
            "componentType" : 5123,
            "count" : 36,
            "type" : "SCALAR"
        },
        {
            "bufferView" : 4,
            "componentType" : 5126,
            "count" : 279,
            "max" : [
                12.490495681762695,
                0.25,
                1.5315637588500977
            ],
            "min" : [
                -1.5399999618530273,
                -0.19034495949745178,
                -1.5315637588500977
            ],
            "type" : "VEC3"
        },
        {
            "bufferView" : 5,
            "componentType" : 5126,
            "count" : 279,
            "type" : "VEC3"
        },
        {
            "bufferView" : 6,
            "componentType" : 5126,
            "count" : 279,
            "type" : "VEC2"
        },
        {
            "bufferView" : 7,
            "componentType" : 5123,
            "count" : 1440,
            "type" : "SCALAR"
        },
        {
            "bufferView" : 8,
            "componentType" : 5126,
            "count" : 276,
            "max" : [
                1.1614065170288086,
                26.288188934326172,
                1.0757898092269897
            ],
            "min" : [
                -1.0757898092269897,
                -1,
                -1.0757899284362793
            ],
            "type" : "VEC3"
        },
        {
            "bufferView" : 9,
            "componentType" : 5126,
            "count" : 276,
            "type" : "VEC3"
        },
        {
            "bufferView" : 10,
            "componentType" : 5126,
            "count" : 276,
            "type" : "VEC2"
        },
        {
            "bufferView" : 11,
            "componentType" : 5123,
            "count" : 1224,
            "type" : "SCALAR"
        },
        {
            "bufferView" : 12,
            "componentType" : 5126,
            "count" : 832,
            "max" : [
                0.9967169165611267,
                4.142159938812256,
                0.9967169165611267
            ],
            "min" : [
                -0.9967169165611267,
                -1,
                -0.9967169165611267
            ],
            "type" : "VEC3"
        },
        {
            "bufferView" : 13,
            "componentType" : 5126,
            "count" : 832,
            "type" : "VEC3"
        },
        {
            "bufferView" : 14,
            "componentType" : 5126,
            "count" : 832,
            "type" : "VEC2"
        },
        {
            "bufferView" : 15,
            "componentType" : 5123,
            "count" : 3828,
            "type" : "SCALAR"
        },
        {
            "bufferView" : 16,
            "componentType" : 5126,
            "count" : 301,
            "max" : [
                1,
                1.7766542434692383,
                1
            ],
            "min" : [
                -1,
                -0.22809159755706787,
                -1.0037769079208374
            ],
            "type" : "VEC3"
        },
        {
            "bufferView" : 17,
            "componentType" : 5126,
            "count" : 301,
            "type" : "VEC3"
        },
        {
            "bufferView" : 18,
            "componentType" : 5126,
            "count" : 301,
            "type" : "VEC2"
        },
        {
            "bufferView" : 19,
            "componentType" : 5123,
            "count" : 555,
            "type" : "SCALAR"
        },
        {
            "bufferView" : 20,
            "componentType" : 5126,
            "count" : 301,
            "max" : [
                1,
                1.7766542434692383,
                1
            ],
            "min" : [
                -1,
                -0.22809159755706787,
                -1.0037769079208374
            ],
            "type" : "VEC3"
        },
        {
            "bufferView" : 21,
            "componentType" : 5126,
            "count" : 301,
            "type" : "VEC3"
        },
        {
            "bufferView" : 22,
            "componentType" : 5126,
            "count" : 301,
            "type" : "VEC2"
        },
        {
            "bufferView" : 23,
            "componentType" : 5126,
            "count" : 6464,
            "max" : [
                1,
                1.020944595336914,
                1
            ],
            "min" : [
                -1,
                -3.5045995712280273,
                -1
            ],
            "type" : "VEC3"
        },
        {
            "bufferView" : 24,
            "componentType" : 5126,
            "count" : 6464,
            "type" : "VEC3"
        },
        {
            "bufferView" : 25,
            "componentType" : 5126,
            "count" : 6464,
            "type" : "VEC2"
        },
        {
            "bufferView" : 26,
            "componentType" : 5123,
            "count" : 9684,
            "type" : "SCALAR"
        },
        {
            "bufferView" : 27,
            "componentType" : 5126,
            "count" : 854,
            "max" : [
                0.9974750876426697,
                6.197817802429199,
                0.9974750876426697
            ],
            "min" : [
                -0.9974750280380249,
                -0.966504693031311,
                -0.9974750876426697
            ],
            "type" : "VEC3"
        },
        {
            "bufferView" : 28,
            "componentType" : 5126,
            "count" : 854,
            "type" : "VEC3"
        },
        {
            "bufferView" : 29,
            "componentType" : 5126,
            "count" : 854,
            "type" : "VEC2"
        },
        {
            "bufferView" : 30,
            "componentType" : 5123,
            "count" : 2688,
            "type" : "SCALAR"
        }
    ],
    "bufferViews" : [
        {
            "buffer" : 0,
            "byteLength" : 288,
            "byteOffset" : 0
        },
        {
            "buffer" : 0,
            "byteLength" : 288,
            "byteOffset" : 288
        },
        {
            "buffer" : 0,
            "byteLength" : 192,
            "byteOffset" : 576
        },
        {
            "buffer" : 0,
            "byteLength" : 72,
            "byteOffset" : 768
        },
        {
            "buffer" : 0,
            "byteLength" : 3348,
            "byteOffset" : 840
        },
        {
            "buffer" : 0,
            "byteLength" : 3348,
            "byteOffset" : 4188
        },
        {
            "buffer" : 0,
            "byteLength" : 2232,
            "byteOffset" : 7536
        },
        {
            "buffer" : 0,
            "byteLength" : 2880,
            "byteOffset" : 9768
        },
        {
            "buffer" : 0,
            "byteLength" : 3312,
            "byteOffset" : 12648
        },
        {
            "buffer" : 0,
            "byteLength" : 3312,
            "byteOffset" : 15960
        },
        {
            "buffer" : 0,
            "byteLength" : 2208,
            "byteOffset" : 19272
        },
        {
            "buffer" : 0,
            "byteLength" : 2448,
            "byteOffset" : 21480
        },
        {
            "buffer" : 0,
            "byteLength" : 9984,
            "byteOffset" : 23928
        },
        {
            "buffer" : 0,
            "byteLength" : 9984,
            "byteOffset" : 33912
        },
        {
            "buffer" : 0,
            "byteLength" : 6656,
            "byteOffset" : 43896
        },
        {
            "buffer" : 0,
            "byteLength" : 7656,
            "byteOffset" : 50552
        },
        {
            "buffer" : 0,
            "byteLength" : 3612,
            "byteOffset" : 58208
        },
        {
            "buffer" : 0,
            "byteLength" : 3612,
            "byteOffset" : 61820
        },
        {
            "buffer" : 0,
            "byteLength" : 2408,
            "byteOffset" : 65432
        },
        {
            "buffer" : 0,
            "byteLength" : 1110,
            "byteOffset" : 67840
        },
        {
            "buffer" : 0,
            "byteLength" : 3612,
            "byteOffset" : 68952
        },
        {
            "buffer" : 0,
            "byteLength" : 3612,
            "byteOffset" : 72564
        },
        {
            "buffer" : 0,
            "byteLength" : 2408,
            "byteOffset" : 76176
        },
        {
            "buffer" : 0,
            "byteLength" : 77568,
            "byteOffset" : 78584
        },
        {
            "buffer" : 0,
            "byteLength" : 77568,
            "byteOffset" : 156152
        },
        {
            "buffer" : 0,
            "byteLength" : 51712,
            "byteOffset" : 233720
        },
        {
            "buffer" : 0,
            "byteLength" : 19368,
            "byteOffset" : 285432
        },
        {
            "buffer" : 0,
            "byteLength" : 10248,
            "byteOffset" : 304800
        },
        {
            "buffer" : 0,
            "byteLength" : 10248,
            "byteOffset" : 315048
        },
        {
            "buffer" : 0,
            "byteLength" : 6832,
            "byteOffset" : 325296
        },
        {
            "buffer" : 0,
            "byteLength" : 5376,
            "byteOffset" : 332128
        }
    ],
    "buffers" : [
        {
            "byteLength" : 337504,
            "uri" : "data:application/octet-stream;base64,"
        }
    ]
}
