{
    "asset" : {
        "generator" : "Khronos glTF Blender I/O v0.9.36",
        "version" : "2.0"
    },
    "extensionsUsed" : [
        "KHR_texture_transform"
    ],
    "extensionsRequired" : [
        "KHR_texture_transform"
    ],
    "scene" : 0,
    "scenes" : [
        {
            "name" : "Scene",
            "nodes" : [
                0,
                1
            ]
        }
    ],
    "nodes" : [
        {
            "mesh" : 0,
            "name" : "Cube.188",
            "rotation" : [
                0,
                0,
                -0.7071067690849304,
                0.7071068286895752
            ],
            "scale" : [
                0.6001718640327454,
                4.102229595184326,
                -53.4278564453125
            ],
            "translation" : [
                36.32496643066406,
                21.26123046875,
                -5.9244794845581055
            ]
        },
        {
            "mesh" : 1,
            "name" : "Cylinder.077",
            "scale" : [
                110.3609848022461,
                8.562463760375977,
                110.3609848022461
            ],
            "translation" : [
                85.01585388183594,
                19.615135192871094,
                1.3877264261245728
            ]
        }
    ],
    "materials" : [
        {
            "doubleSided" : true,
            "name" : "wood_floor",
            "pbrMetallicRoughness" : {
                "baseColorTexture" : {
                    "extensions" : {
                        "KHR_texture_transform" : {
                            "offset" : [
                                -14.142135932817151,
                                -13.142135314644744
                            ],
                            "rotation" : 0.7853981852531433,
                            "scale" : [
                                20,
                                20
                            ]
                        }
                    },
                    "index" : 0,
                    "texCoord" : 0
                },
                "metallicFactor" : 0,
                "roughnessFactor" : 0.696891188621521
            }
        }
    ],
    "meshes" : [
        {
            "name" : "Cube.202",
            "primitives" : [
                {
                    "attributes" : {
                        "POSITION" : 0,
                        "NORMAL" : 1,
                        "TEXCOORD_0" : 2
                    },
                    "indices" : 3,
                    "material" : 0
                }
            ]
        },
        {
            "name" : "Cylinder.082",
            "primitives" : [
                {
                    "attributes" : {
                        "POSITION" : 4,
                        "NORMAL" : 5,
                        "TEXCOORD_0" : 6
                    },
                    "indices" : 7,
                    "material" : 0
                }
            ]
        }
    ],
    "textures" : [
        {
            "source" : 0
        }
    ],
    "images" : [
        {
            "bufferView" : 4,
            "mimeType" : "image/jpeg",
            "name" : "wooden_flooring"
        }
    ],
    "accessors" : [
        {
            "bufferView" : 0,
            "componentType" : 5126,
            "count" : 129,
            "max" : [
                1.7009217739105225,
                11.855945587158203,
                1
            ],
            "min" : [
                -1.7284412384033203,
                -1.2126729488372803,
                -1.2696661949157715
            ],
            "type" : "VEC3"
        },
        {
            "bufferView" : 1,
            "componentType" : 5126,
            "count" : 129,
            "type" : "VEC3"
        },
        {
            "bufferView" : 2,
            "componentType" : 5126,
            "count" : 129,
            "type" : "VEC2"
        },
        {
            "bufferView" : 3,
            "componentType" : 5123,
            "count" : 486,
            "type" : "SCALAR"
        },
        {
            "bufferView" : 5,
            "componentType" : 5126,
            "count" : 272,
            "max" : [
                1,
                0.33723312616348267,
                1
            ],
            "min" : [
                -8.026785280890181e-07,
                -0.10089468955993652,
                -1
            ],
            "type" : "VEC3"
        },
        {
            "bufferView" : 6,
            "componentType" : 5126,
            "count" : 272,
            "type" : "VEC3"
        },
        {
            "bufferView" : 7,
            "componentType" : 5126,
            "count" : 272,
            "type" : "VEC2"
        },
        {
            "bufferView" : 8,
            "componentType" : 5123,
            "count" : 1200,
            "type" : "SCALAR"
        }
    ],
    "bufferViews" : [
        {
            "buffer" : 0,
            "byteLength" : 1548,
            "byteOffset" : 0
        },
        {
            "buffer" : 0,
            "byteLength" : 1548,
            "byteOffset" : 1548
        },
        {
            "buffer" : 0,
            "byteLength" : 1032,
            "byteOffset" : 3096
        },
        {
            "buffer" : 0,
            "byteLength" : 972,
            "byteOffset" : 4128
        },
        {
            "buffer" : 0,
            "byteLength" : 268686,
            "byteOffset" : 5100
        },
        {
            "buffer" : 0,
            "byteLength" : 3264,
            "byteOffset" : 273788
        },
        {
            "buffer" : 0,
            "byteLength" : 3264,
            "byteOffset" : 277052
        },
        {
            "buffer" : 0,
            "byteLength" : 2176,
            "byteOffset" : 280316
        },
        {
            "buffer" : 0,
            "byteLength" : 2400,
            "byteOffset" : 282492
        }
    ],
    "buffers" : [
        {
            "byteLength" : 284892,
            "uri" : "data:application/octet-stream;base64,"
        }
    ]
}
